<?xml version="1.0" ?><svg xmlns="http://www.w3.org/2000/svg" width="48mm" height="48mm" version="1.1" viewBox="0 0 48 48">
<g stroke="#fff" stroke-linecap="round">
<g fill="none" stroke-width=".8">
<path id="shell" d="m12.8 27.4c-1.5 0.1-2.1-1.7-1.8-2.9 0.6-2.2 3.3-3 5.2-2.2 2.9 1.1 3.9 4.7 2.6 7.4-1.6 3.6-6.1 4.7-9.55 3-4.25-2.1-5.57-7.6-3.4-11.7 2.61-4.9 8.95-6.4 13.8-3.8 4.9 2.7 6.9 8.8 5 13.9"/>
<path id="foot" d="m40.5 37.5c-4-0.3-8.1-0.5-12.1-0.5-4.1 0-8.1 0.2-12.2 0.5h-10.9"/>
<path id="ltent" d="m29.7 33.2c-0.1-2.6 0.5-5.3 1.6-7.7 0.6-1.2 1.3-2.4 2.1-3.4"/>
</g>
<g id="leye" transform="translate(32 14.5)" fill="none">
<circle id="lball" cx="4" cy="4" r="3" stroke-width=".8"/>
<circle id="lpup" cx="4" cy="4" r=".7" stroke-width=".4"/>
</g>
<path id="rtent" d="m35.2 33.3c0.1-2.4 0.9-4.8 2.3-6.7 0.7-1 1.5-1.9 2.5-2.6" fill="none" stroke-width=".8"/>
<g id="reye" transform="translate(39.5 17)" fill="none">
<circle id="rball" cx="4" cy="4" r="3" stroke-width=".8"/>
<circle id="rpup" cx="4" cy="4" r=".7" stroke-width=".4"/>
</g>
<path id="heart" d="m14.9 25c-0.2 0-0.5 0.1-0.6 0.4-0.2-0.3-0.4-0.4-0.7-0.4-0.4 0-0.8 0.3-0.8 0.8 0 1 1.3 1.6 1.4 1.6h0.1c0.1 0 1.5-0.6 1.5-1.6 0-0.5-0.5-0.8-0.9-0.8z" fill="#9f0000" stop-color="#000000" stroke-width=".2" style="font-variation-settings:normal"/>
</g>
</svg>