<?xml version="1.0" ?><svg xmlns="http://www.w3.org/2000/svg" width="48mm" height="48mm" version="1.1" viewBox="0 0 48 48">
<g stroke="#fff" stroke-linecap="round">
<g fill="none" stroke-width=".8">
<path id="shell" d="m13 30.3c-0.2 0.1-0.4-0.2-0.4-0.5-0.1-0.7 0.8-1 1.4-0.9 1.3 0.1 1.9 1.7 1.6 2.9-0.6 2.2-3.1 3.1-5.1 2.4-3.22-1-4.39-4.9-3.27-7.8 1.66-4.4 6.97-6 11.2-4.3 4.5 1.9 6.9 6.9 6.3 11.6"/>
<path id="foot" d="m37.1 37c-4-0.1-8-0.1-12-0.1-5 0-10.1 0.1-15.1 0.1h-4.12"/>
<path id="ltent" d="m28.9 34.8c0.2-1.3 0.3-2.5 0.3-3.8 0-1.1-0.1-2.1-0.3-3.2"/>
</g>
<g id="leye" transform="translate(24 19.5)" fill="none">
<circle id="lball" cx="4" cy="4" r="3" stroke-width=".8"/>
<circle id="lpup" cx="4" cy="4" r=".7" stroke-width=".4"/>
</g>
<path id="rtent" d="m33.7 35.4c0.1-1.3 0.2-2.6 0.5-3.9 0.2-1.1 0.5-2.1 0.9-3.1" fill="none" stroke-width=".8"/>
<g id="reye" transform="translate(33 20.5)" fill="none">
<circle id="rball" cx="4" cy="4" r="3" stroke-width=".8"/>
<circle id="rpup" cx="4" cy="4" r=".7" stroke-width=".4"/>
</g>
<path id="heart" d="m13.4 29.9c-0.1 0-0.3 0.1-0.4 0.3-0.2-0.2-0.3-0.3-0.5-0.3-0.3 0-0.6 0.2-0.6 0.6 0 0.8 0.9 1.2 1 1.2h0.1c0.1 0 1-0.4 1-1.2 0-0.4-0.3-0.6-0.6-0.6z" fill="#9f0000" stop-color="#000000" stroke-width=".2" style="font-variation-settings:normal"/>
</g>
</svg>