<?xml version="1.0" ?><svg xmlns="http://www.w3.org/2000/svg" width="48mm" height="48mm" version="1.1" viewBox="0 0 48 48">
<g fill="none" stroke="#fff" stroke-linecap="round">
<g stroke-width=".8">
<path id="shell" d="m12.8 27.4c-1.5 0.1-2.1-1.7-1.8-2.9 0.6-2.2 3.3-3 5.2-2.2 2.9 1.1 3.9 4.7 2.6 7.4-1.6 3.6-6.1 4.7-9.55 3-4.25-2.1-5.57-7.6-3.4-11.7 2.61-4.9 8.95-6.4 13.8-3.8 4.9 2.7 6.9 8.8 5 13.9"/>
<path id="foot" d="m40.5 37.5c-4-0.3-8.1-0.5-12.1-0.5-4.1 0-8.1 0.2-12.2 0.5h-10.9"/>
<path id="ltent" d="m30.3 32.2c0.6-2.2 0.9-4.4 1-6.7 0.1-1.5 0-3-0.1-4.5"/>
</g>
<svg id="leye" x="27" y="11.7">
<circle id="lball" cx="4" cy="4" r="3" stroke-width=".8"/>
<circle id="lpup" cx="4" cy="4" r=".7" stroke-width=".4"/>
</svg>
<path id="rtent" d="m35.7 32.7c0-2.6 0.3-5.2 1.1-7.7 0.4-1.2 0.8-2.4 1.4-3.5" stroke-width=".8"/>
<svg id="reye" x="36" y="12.5">
<circle id="rball" cx="4" cy="4" r="3" stroke-width=".8"/>
<circle id="rpup" cx="4" cy="4" r=".7" stroke-width=".4"/>
</svg>
</g>
</svg>